# xmcd CD database file generated by MAGIX-FreeDB-MusicFinder_base v2.0beta1
# 
# Track frame offsets:
#      150
#      13343
#      22424
#      44315
#      55771
#      61129
#      72565
#      87063
#      100191
#      113498
#      123806
#      134911
#      143631
#      161792
#      175583
#      189938
#      201782
# 
# Disc length: 2843 seconds
# 
# Revision: 3 
# Processed by: cddbd v1.5.2PL0 Copyright (c) Steve Scherf et al.
# Submitted via: MAGIX-FreeDB-MusicFinder_base v2.0beta1
# 
DISCID=ed0b1911
DTITLE=Various Artist - The Best Of Country and Western 10 van 12
DYEAR=1900
DGENRE=Country
TTITLE0=Loretta Lynn - Let your love flow
TTITLE1=Waylon Jennings - Dream baby
TTITLE2=Willie Nelson - City of New Orleans
TTITLE3=Johnny Paycheck - Heartaches by the number
TTITLE4=Brenda Lee - Operator
TTITLE5=Patsy Cline - Turn the cards slowly
TTITLE6=John Denver - Home grown tomatoes
TTITLE7=Ferlin Husky - A room full of roses
TTITLE8=Johnny Russell - Catfish John
TTITLE9=Patsy Cline - Pick me up on your way down
TTITLE10=Jeannie C. Riley - Box of memories
TTITLE11=Johnny Cash - Get rhytm
TTITLE12=Tom T. Hall - I like beer
TTITLE13=B. Fairchild and B. Owens - Cracy love
TTITLE14=Jerry Lee Lewis - What's made Milwaukee famous
TTITLE15=Jack Greene - There goes my everything
TTITLE16=Roger Miller - Little green apples
EXTD=
EXTT0=
EXTT1=
EXTT2=
EXTT3=
EXTT4=
EXTT5=
EXTT6=
EXTT7=
EXTT8=
EXTT9=
EXTT10=
EXTT11=
EXTT12=
EXTT13=
EXTT14=
EXTT15=
EXTT16=
PLAYORDER=
